<?xml version="1.0" encoding="utf-8"?>
<!-- Generator: Adobe Illustrator 18.1.1, SVG Export Plug-In . SVG Version: 6.00 Build 0)  -->
<svg version="1.1" id="Ebene_1" xmlns="http://www.w3.org/2000/svg"  x="0px" y="0px"
	 viewBox="0 0 26.4 9.3" enable-background="new 0 0 26.4 9.3" xml:space="preserve">
<g id="deliver">
	<g>
		<path fill="#48494A" d="M11.4,4.9h6.6L20.1,2V0l-9.2,0L8.6,1.6L11.4,4.9z M19.2,2l-1.6,2.1h-5.7L9.7,1.9l1.5-1.1h8V2z"/>
		<path fill="#48494A" d="M10.3,1.9l0.9,1h6.6L18.6,2V1.3h-7.4L10.3,1.9z"/>
	</g>
	<path fill="#48494A" d="M11.3,5.3L10.6,6v1.3h0c0,0.1,0,0.1,0,0.2c0,1,0.8,1.8,1.8,1.8c1,0,1.8-0.8,1.8-1.8c0-0.1,0-0.1,0-0.2h0.3
		c0,0.1,0,0.1,0,0.2c0,1,0.8,1.8,1.8,1.8s1.8-0.8,1.8-1.8c0-0.1,0-0.1,0-0.2h3.4c0,0.1,0,0.1,0,0.2c0,1,0.8,1.8,1.8,1.8
		c1,0,1.8-0.8,1.8-1.8c0-0.1,0-0.1,0-0.2l0.9,0c0.2,0,0.3-0.1,0.3-0.3V6.3V5.7V2.9l-1.1-2.7C25.2,0.1,25,0,24.9,0l-4.1,0v5.3H11.3
		 M21.8,3.2l0-2.3h2.5c0.1,0,0.3,0.1,0.3,0.2l0.7,1.8l0,0.8h-1.1c0,0-0.7-0.5-0.8-0.5C23.4,3.2,21.8,3.2,21.8,3.2z M22.2,7.4
		c0-0.7,0.5-1.2,1.2-1.2c0.7,0,1.2,0.5,1.2,1.2S24,8.6,23.4,8.6C22.7,8.6,22.2,8.1,22.2,7.4z M15.1,7.4c0-0.7,0.5-1.2,1.2-1.2
		c0.7,0,1.2,0.5,1.2,1.2S17,8.6,16.3,8.6C15.7,8.6,15.1,8.1,15.1,7.4z M11.2,7.4c0-0.7,0.5-1.2,1.2-1.2c0.7,0,1.2,0.5,1.2,1.2
		s-0.5,1.2-1.2,1.2C11.8,8.6,11.2,8.1,11.2,7.4z"/>
	<polygon fill="#48494A" points="8.8,3.7 8.2,2.9 0,3.3 	"/>
	<polygon fill="#48494A" points="7.7,2.2 7.3,1.7 2.2,1.9 	"/>
</g>
</svg>
